{"title":"Winter.The.Dolphin.That.Could.DVDRip.XviD-SwampFr0g","uid":6948913,"size":727090291,"categoryP":"video","categoryS":"movies","magnet":"?xt=urn:btih:f378446abde69e18bca5b1a6befbbc088f5bfe23&amp;dn=Winter.The.Dolphin.That.Could.DVDRip.XviD-SwampFr0g&amp;tr=udp%3A%2F%2Ftracker.openbittorrent.com%3A80&amp;tr=udp%3A%2F%2Fopen.demonii.com%3A1337&amp;tr=udp%3A%2F%2Ftracker.coppersurfer.tk%3A6969&amp;tr=udp%3A%2F%2Fexodus.desync.com%3A6969","seeders":0,"leechers":1,"uploader":"TvTeam","files":4,"time":1326330464,"description":". \n &lt;a href=&quot;\nhttp://www.torrenting.com&quot; rel=&quot;nofollow&quot; target=&quot;_NEW&quot;&gt;\nhttp://www.torrenting.com&lt;/a&gt;          :     Once &amp; For all ;)\n\n\n               www . Torrenting . Com \n\n(((((((((((((= Enjoy No RAR releases =))))))))))))))))))))\n\n\n...................................NFO:....................................\n\n.[img]http://img718.imageshack.us/img718/3536/winterthedolphinthatcou.png[/img]\n\n\nWinter.The.Dolphin.That.Could.DVDRip.XviD-SwampFr0g\n\n\nWatch never before seen footage as Winter is rescued from the waters near\nCape Canaveral, Florida, and see the Clearwater Marine Aquarium team rally\naround her as she travels her path to survival. Go behind the scenes with\nHanger Prosthetics as they develop a new tail for Winter, and see how she\nis now inspiring disabled children. This is a must see one-hour film for\nall ages. It is also good for classrooms.\n &lt;a href=&quot;\nhttp://cmastore.seewinter.com/products/132-winter-dvd-documentary.aspx&quot; rel=&quot;nofollow&quot; target=&quot;_NEW&quot;&gt;\nhttp://cmastore.seewinter.com/products/132-winter-dvd-documentary.aspx&lt;/a&gt;\n\n\nGeneral\nComplete name                    : Winter.The.Dolphin.That.Could.DVDRip.XviD-SwampFr0g.avi\nFormat                           : AVI\nFormat/Info                      : Audio Video Interleave\nFormat profile                   : OpenDML\nFormat settings                  : rec\nFile size                        : 693 MiB\nDuration                         : 1h 3mn\nOverall bit rate                 : 1 517 Kbps\nWriting application              : AVI-Mux GUI 1.17.8.3\n\nVideo\nID                               : 0\nFormat                           : MPEG-4 Visual\nFormat profile                   : Simple@L1\nFormat settings, BVOP            : No\nFormat settings, QPel            : No\nFormat settings, GMC             : No warppoints\nFormat settings, Matrix          : Default (H.263)\nCodec ID                         : XVID\nCodec ID/Hint                    : XviD\nDuration                         : 1h 3mn\nBit rate                         : 1 384 Kbps\nWidth                            : 720 pixels\nHeight                           : 480 pixels\nDisplay aspect ratio             : 4:3\nFrame rate                       : 29.970 fps\nStandard                         : NTSC\nColor space                      : YUV\nChroma subsampling               : 4:2:0\nBit depth                        : 8 bits\nScan type                        : Progressive\nCompression mode                 : Lossy\nBits/(Pixel*Frame)               : 0.134\nStream size                      : 633 MiB (91%)\nWriting library                  : Lavc52.114.0\n\nAudio\nID                               : 1\nFormat                           : MPEG Audio\nFormat version                   : Version 1\nFormat profile                   : Layer 3\nMode                             : Joint stereo\nMode extension                   : MS Stereo\nCodec ID                         : 55\nCodec ID/Hint                    : MP3\nDuration                         : 1h 3mn\nBit rate mode                    : Constant\nBit rate                         : 128 Kbps\nChannel(s)                       : 2 channels\nSampling rate                    : 48.0 KHz\nCompression mode                 : Lossy\nStream size                      : 58.5 MiB (8%)\nAlignment                        : Aligned on interleaves\nInterleave, duration             : 566 ms (16.97 video frames)\nInterleave, preload duration     : 216 ms\nWriting library                  : LAME3.98.4","torrent":{"xt":"urn:btih:f378446abde69e18bca5b1a6befbbc088f5bfe23","amp;dn":"Winter.The.Dolphin.That.Could.DVDRip.XviD-SwampFr0g","amp;tr":["udp%3A%2F%2Ftracker.openbittorrent.com%3A80","udp%3A%2F%2Fopen.demonii.com%3A1337","udp%3A%2F%2Ftracker.coppersurfer.tk%3A6969","udp%3A%2F%2Fexodus.desync.com%3A6969"],"infoHash":"f378446abde69e18bca5b1a6befbbc088f5bfe23","infoHashBuffer":{"type":"Buffer","data":[243,120,68,106,189,230,158,24,188,165,177,166,190,251,188,8,143,91,254,35]},"announce":[],"urlList":[]}}